<svg width="18" height="16" viewBox="0 0 18 16" fill="none" xmlns="http://www.w3.org/2000/svg">
<path d="M10.4141 1.69163H0.660793C0.290749 1.69163 0 1.98238 0 2.35242C0 2.72247 0.290749 3.01322 0.660793 3.01322H10.4141C10.7048 3.99119 11.6035 4.70485 12.6872 4.70485C13.7445 4.70485 14.6696 3.99119 14.9339 3.01322H17.3392C17.7093 3.01322 18 2.72247 18 2.35242C18 1.98238 17.7093 1.69163 17.3392 1.69163H14.9339C14.6432 0.713656 13.7445 0 12.6872 0C11.6035 0 10.7048 0.713656 10.4141 1.69163ZM13.6916 2.35242C13.6916 2.93392 13.2159 3.38326 12.6608 3.38326C12.1057 3.38326 11.63 2.93392 11.63 2.35242C11.63 1.77093 12.1057 1.32159 12.6608 1.32159C13.1894 1.32159 13.6916 1.77093 13.6916 2.35242Z" fill="#EB7047"/>
<path d="M2.48458 6.97798H0.660793C0.290749 6.97798 0 7.26873 0 7.63877C0 8.00881 0.290749 8.29956 0.660793 8.29956H2.48458C2.77533 9.27754 3.67401 9.99119 4.75771 9.99119C5.81498 9.99119 6.74009 9.27754 7.00441 8.29956H17.3392C17.7093 8.29956 18 8.00881 18 7.63877C18 7.26873 17.7093 6.97798 17.3392 6.97798H7.00441C6.71366 6 5.81498 5.28635 4.75771 5.28635C3.67401 5.28635 2.77533 6 2.48458 6.97798ZM5.76211 7.63877C5.76211 8.22027 5.28634 8.66961 4.73128 8.66961C4.17621 8.66961 3.70044 8.22027 3.70044 7.63877C3.70044 7.05727 4.17621 6.60793 4.73128 6.60793C5.28634 6.60793 5.76211 7.05727 5.76211 7.63877Z" fill="#EB7047"/>
<path d="M7.24229 12.7929H0.660793C0.290749 12.7929 0 13.0837 0 13.4537C0 13.8238 0.290749 14.1145 0.660793 14.1145H7.24229C7.53304 15.0925 8.43172 15.8062 9.51542 15.8062C10.5727 15.8062 11.4978 15.0925 11.7621 14.1145H17.3392C17.7093 14.1145 18 13.8238 18 13.4537C18 13.0837 17.7093 12.7929 17.3392 12.7929H11.7621C11.4714 11.815 10.5727 11.1013 9.51542 11.1013C8.43172 11.1013 7.53304 11.815 7.24229 12.7929ZM10.5198 13.4537C10.5198 14.0352 10.0441 14.4846 9.48899 14.4846C8.93392 14.4846 8.45815 14.0352 8.45815 13.4537C8.45815 12.8722 8.93392 12.4229 9.48899 12.4229C10.0441 12.4229 10.5198 12.8722 10.5198 13.4537Z" fill="#EB7047"/>
</svg>
